Patient4_TMGait_0pt6_02_right_08_GRF.mot
version=1
nRows=78
nColumns=19
inDegrees=no
endheader
time	F1x	F1y	F1z	M1x	M1y	M1z	F2x	F2y	F2z	M2x	M2y	M2z	EC1x	EC1y	EC1z	EC2x	EC2y	EC2z
9.11	18.0895	681.2646	47.6063	-238.8359	-33.1636	625.2286	-10.3987	3.1462	8.7659	-1.1755	-7.2835	4.8182	-0.0592	0.0182	-0.0073	-0.0462	0.0165	0.9585
9.1222	19.983	686.9954	45.9805	-239.9372	-31.5624	630.2669	-7.1249	2.7697	5.9734	-0.51106	-4.8758	3.9534	-0.0592	0.0182	-0.0073	-0.0462	0.0165	0.9585
9.1344	21.6097	693.509	44.8026	-241.2774	-30.3163	635.4294	-4.4169	2.4983	3.5537	0.082918	-2.7623	3.2781	-0.0592	0.0182	-0.0073	-0.0462	0.0165	0.9585
9.1466	22.8739	700.5098	44.1705	-242.7957	-29.5276	640.4624	-2.4031	2.3334	1.6736	0.56216	-1.0991	2.8088	-0.0592	0.0182	-0.0073	-0.0462	0.0165	0.9585
9.1589	23.7766	707.5936	44.1005	-244.362	-29.2156	645.0875	-1.0497	2.2642	0.3506	0.9193	0.090544	2.5308	-0.0592	0.0182	-0.0073	-0.0462	0.0165	0.9585
9.1711	24.3908	714.228	44.535	-245.7829	-29.3209	648.9379	-0.26314	2.2645	-0.48542	1.1632	0.86597	2.4056	-0.0592	0.0182	-0.0073	-0.0462	0.0165	0.9585
9.1833	24.852	719.8153	45.407	-246.8314	-29.7565	651.5846	0.10057	2.3011	-0.94081	1.3088	1.3125	2.3793	-0.0592	0.0182	-0.0073	-0.0462	0.0165	0.9585
9.1955	25.3333	723.8281	46.6195	-247.3008	-30.3959	652.6306	0.15798	2.3453	-1.1259	1.3728	1.5297	2.4117	-0.0592	0.0182	-0.0073	-0.0462	0.0165	0.9585
9.2077	26.0111	725.9274	48.0882	-247.0563	-31.1225	651.8234	0.02859	2.3397	-1.1416	1.3603	1.6098	2.4169	-0.0592	0.0182	-0.0073	-0.0462	0.0165	0.9585
9.2199	27.0512	726.0612	49.7048	-246.0681	-31.8038	649.1508	-0.21725	2.2402	-1.0629	1.2726	1.6226	2.3367	-0.0592	0.0182	-0.0073	-0.0462	0.0165	0.9585
9.2321	28.5663	724.4732	51.3884	-244.4115	-32.3495	644.8597	-0.50934	1.967	-0.95395	1.0961	1.6165	2.0594	-0.0592	0.0182	-0.0073	-0.0462	0.0165	0.9585
9.2444	30.6041	721.662	53.0446	-242.2539	-32.6755	639.4097	-0.81606	1.4564	-0.84751	0.81322	1.6153	1.5141	-0.0592	0.0182	-0.0073	-0.0462	0.0165	0.9585
9.2566	33.1543	718.3018	54.624	-239.8264	-32.7523	633.4076	-1.071	0.63061	-0.75881	0.39917	1.6115	0.60172	-0.0592	0.0182	-0.0073	-0.0462	0.0165	0.9585
9.2688	36.1733	715.1425	56.0952	-237.3901	-32.5727	627.5227	-1.2251	-0.5356	-0.6854	-0.15685	1.5773	-0.7018	-0.0592	0.0182	-0.0073	-0.0462	0.0165	0.9585
9.281	39.5791	712.8776	57.4774	-235.1916	-32.1809	622.3654	-1.1758	-2.0182	-0.61619	-0.84092	1.455	-2.3837	-0.0592	0.0182	-0.0073	-0.0462	0.0165	0.9585
9.2932	43.2684	712.0503	58.8007	-233.4351	-31.6334	618.41	-0.82777	-3.67	-0.52772	-1.5886	1.1699	-4.276	-0.0592	0.0182	-0.0073	-0.0462	0.0165	0.9585
9.3054	47.1182	712.9877	60.1286	-232.2575	-31.0241	615.9395	-0.025825	-5.1935	-0.3894	-2.2659	0.62006	-6.0582	-0.0592	0.0182	-0.0073	-0.0462	0.0165	0.9585
9.3176	50.9847	715.8136	61.5113	-231.7345	-30.4473	615.0735	1.3839	-6.0613	-0.17474	-2.6374	-0.29545	-7.138	-0.0592	0.0182	-0.0073	-0.0462	0.0165	0.9585
9.3299	54.7317	720.4779	63.0067	-231.8925	-30.0127	615.7919	3.5541	-5.4637	0.14389	-2.3412	-1.6737	-6.5911	-0.0592	0.0182	-0.0073	-0.0462	0.0165	0.9585
9.3421	58.234	726.7711	64.6412	-232.7193	-29.8064	617.9661	6.5688	-2.2808	0.57586	-0.87983	-3.5587	-3.1314	-0.0592	0.0182	-0.0073	-0.0462	0.0165	0.9585
9.3543	61.4034	734.3044	66.4014	-234.1586	-29.8814	621.3342	10.3553	4.8785	1.1098	2.3649	-5.8992	4.8431	-0.0592	0.0182	-0.0073	-0.0462	0.0165	0.9585
9.3665	64.16	742.452	68.2038	-236.0852	-30.2388	625.4814	14.5896	17.5524	1.6909	8.075	-8.4761	19.1089	-0.0592	0.0182	-0.0073	-0.0462	0.0165	0.9585
9.3787	66.4359	750.2627	69.8808	-238.2703	-30.8146	629.7464	18.5273	37.1486	2.2019	16.8733	-10.8138	41.3113	-0.0592	0.0182	-0.0073	-0.0462	0.0165	0.9585
9.3909	68.1127	756.3929	71.1711	-240.3411	-31.4763	633.1505	20.9266	64.5255	2.4497	29.1355	-12.132	72.4799	-0.0592	0.0182	-0.0073	-0.0462	0.0165	0.9585
9.4031	69.0463	758.9865	71.7127	-241.7195	-31.9946	634.2351	20.1989	99.6021	2.2412	44.817	-11.5054	112.6105	-0.0592	0.0182	-0.0073	-0.0462	0.0165	0.9585
9.4154	69.0332	755.6213	71.0477	-241.5677	-32.0506	630.9769	15.375	141.3287	1.3139	63.445	-8.2153	160.5748	-0.0592	0.0182	-0.0073	-0.0462	0.0165	0.9585
9.4276	67.8743	743.3421	68.6649	-238.7709	-31.228	620.7312	7.1888	187.7923	-0.55082	84.152	-2.3321	214.1674	-0.0592	0.0182	-0.0073	-0.0462	0.0165	0.9585
9.4398	65.5601	719.3501	64.1922	-232.2178	-29.1164	600.9135	-2.373	235.186	-3.4244	105.244	5.3376	268.8183	-0.0592	0.0182	-0.0073	-0.0462	0.0165	0.9585
9.452	62.3577	682.0416	57.5134	-221.2349	-25.4143	570.0314	-11.3805	278.2983	-7.1779	124.4161	13.699	318.2664	-0.0592	0.0182	-0.0073	-0.0462	0.0165	0.9585
9.4642	58.452	631.6419	49.018	-205.8313	-20.3396	528.264	-18.5113	313.2035	-11.2057	139.954	21.4298	357.7711	-0.0592	0.0182	-0.0073	-0.0462	0.0165	0.9585
9.4764	53.7268	570.3358	39.4616	-186.7418	-14.5787	477.5604	-23.3251	339.432	-15.1633	151.6546	27.9088	386.7209	-0.0592	0.0182	-0.0073	-0.0462	0.0165	0.9585
9.4886	47.9937	501.8757	29.8947	-165.2539	-9.1158	421.245	-26.0673	359.627	-18.4629	160.7148	32.6213	408.1199	-0.0592	0.0182	-0.0073	-0.0462	0.0165	0.9585
9.5009	41.1896	430.6551	21.3016	-142.8692	-4.8059	363.0961	-27.2133	377.8016	-21.0645	168.9259	35.7458	426.5447	-0.0592	0.0182	-0.0073	-0.0462	0.0165	0.9585
9.5131	33.4309	360.9211	14.48	-121.0065	-2.2625	306.6407	-27.2629	397.9435	-22.9993	178.0624	37.5893	446.4995	-0.0592	0.0182	-0.0073	-0.0462	0.0165	0.9585
9.5253	25.028	296.2337	9.7486	-100.8258	-1.6061	254.6902	-26.6852	423.0447	-24.6697	189.4393	38.8168	471.37	-0.0592	0.0182	-0.0073	-0.0462	0.0165	0.9585
9.5375	16.4098	239.1233	7.0542	-83.1189	-2.6071	209.1331	-25.8304	454.6999	-26.4015	203.7395	39.9767	502.9554	-0.0592	0.0182	-0.0073	-0.0462	0.0165	0.9585
9.5497	8.1023	190.8998	5.9455	-68.2586	-4.6767	170.7937	-24.9743	492.8337	-28.6019	220.8913	41.6407	541.234	-0.0592	0.0182	-0.0073	-0.0462	0.0165	0.9585
9.5619	0.59305	151.6292	5.8169	-56.1992	-7.1416	139.5319	-24.2864	535.773	-31.4596	240.1287	44.0933	584.4132	-0.0592	0.0182	-0.0073	-0.0462	0.0165	0.9585
9.5741	-5.7524	120.4424	6.0048	-46.6108	-9.3468	114.4882	-23.8591	580.8792	-34.994	260.2564	47.3851	629.6749	-0.0592	0.0182	-0.0073	-0.0462	0.0165	0.9585
9.5864	-10.7579	96.0931	6.0515	-39.066	-10.8922	94.6185	-23.6793	625.1676	-38.924	279.9549	51.2026	673.8285	-0.0592	0.0182	-0.0073	-0.0462	0.0165	0.9585
9.5986	-14.3181	77.3842	5.707	-33.1852	-11.5782	78.9952	-23.6657	665.8217	-42.8029	297.988	55.029	713.8975	-0.0592	0.0182	-0.0073	-0.0462	0.0165	0.9585
9.6108	-16.4307	63.3051	4.9132	-28.6648	-11.3908	66.9102	-23.6356	700.4066	-46.1368	313.2995	58.2674	747.3249	-0.0592	0.0182	-0.0073	-0.0462	0.0165	0.9585
9.623	-17.1858	52.963	3.743	-25.2373	-10.447	57.7107	-23.4417	727.0021	-48.5587	325.0614	60.4657	772.1364	-0.0592	0.0182	-0.0073	-0.0462	0.0165	0.9585
9.6352	-16.9278	45.5389	2.3255	-22.6428	-8.9726	50.7752	-22.9508	744.342	-49.9513	332.7277	61.4457	787.0539	-0.0592	0.0182	-0.0073	-0.0462	0.0165	0.9585
9.6474	-16.0514	40.2336	0.82985	-20.627	-7.2329	45.4948	-22.1312	752.0337	-50.3656	336.127	61.2551	791.7432	-0.0592	0.0182	-0.0073	-0.0462	0.0165	0.9585
9.6596	-14.8025	36.3492	-0.62116	-18.9874	-5.4086	41.3321	-21.0086	750.6726	-49.9383	335.5356	60.0578	786.8943	-0.0592	0.0182	-0.0073	-0.0462	0.0165	0.9585
9.6719	-13.377	33.4238	-1.9033	-17.6157	-3.676	37.9699	-19.6002	741.955	-48.7659	331.7141	57.9789	774.3345	-0.0592	0.0182	-0.0073	-0.0462	0.0165	0.9585
9.6841	-11.9214	31.2222	-2.9442	-16.4844	-2.1546	35.2443	-17.9102	728.3232	-47.0052	325.7517	55.194	756.6304	-0.0592	0.0182	-0.0073	-0.0462	0.0165	0.9585
9.6963	-10.5617	29.6381	-3.6876	-15.6003	-0.94178	33.1029	-15.9882	712.4468	-44.8432	318.8349	51.9202	736.5604	-0.0592	0.0182	-0.0073	-0.0462	0.0165	0.9585
9.7085	-9.3447	28.5969	-4.1407	-14.9679	-0.051621	31.4967	-13.9071	696.7577	-42.5427	312.0364	48.4554	716.6363	-0.0592	0.0182	-0.0073	-0.0462	0.0165	0.9585
9.7207	-8.3066	28.0376	-4.3183	-14.5774	0.51311	30.3938	-11.7637	683.1573	-40.3284	306.1909	45.0628	698.8134	-0.0592	0.0182	-0.0073	-0.0462	0.0165	0.9585
9.7329	-7.455	27.8658	-4.2765	-14.3955	0.79874	29.6978	-9.6533	672.9072	-38.3811	301.8502	41.9597	684.3795	-0.0592	0.0182	-0.0073	-0.0462	0.0165	0.9585
9.7451	-6.791	27.9841	-4.0646	-14.3747	0.84779	29.3173	-7.6341	666.6619	-36.787	299.2934	39.2596	673.9913	-0.0592	0.0182	-0.0073	-0.0462	0.0165	0.9585
9.7574	-6.2863	28.2664	-3.7561	-14.454	0.7396	29.1176	-5.738	664.4976	-35.5896	298.5459	37.0184	667.7197	-0.0592	0.0182	-0.0073	-0.0462	0.0165	0.9585
9.7696	-5.9211	28.5743	-3.4046	-14.5618	0.53589	28.9654	-3.9865	666.0454	-34.7689	299.434	35.2222	665.1912	-0.0592	0.0182	-0.0073	-0.0462	0.0165	0.9585
9.7818	-5.656	28.7454	-3.0645	-14.6192	0.30211	28.7041	-2.3848	670.618	-34.321	301.6406	33.8737	665.7119	-0.0592	0.0182	-0.0073	-0.0462	0.0165	0.9585
9.794	-5.4749	28.6379	-2.7645	-14.5536	0.070031	28.2038	-0.93584	677.3453	-34.2003	304.7737	32.9311	668.4144	-0.0592	0.0182	-0.0073	-0.0462	0.0165	0.9585
9.8062	-5.3726	28.1112	-2.5323	-14.2997	-0.13428	27.325	0.39472	685.3032	-34.3695	308.4197	32.3429	672.3772	-0.0592	0.0182	-0.0073	-0.0462	0.0165	0.9585
9.8184	-5.3487	27.0511	-2.378	-13.8064	-0.3045	25.958	1.6521	693.6009	-34.7608	312.1818	32.0241	676.718	-0.0592	0.0182	-0.0073	-0.0462	0.0165	0.9585
9.8306	-5.398	25.3682	-2.3033	-13.0401	-0.43781	24.0131	2.8763	701.3938	-35.3186	315.6902	31.9022	680.5991	-0.0592	0.0182	-0.0073	-0.0462	0.0165	0.9585
9.8429	-5.5033	22.9847	-2.2902	-11.9785	-0.54455	21.4099	4.1086	707.9429	-35.9775	318.6221	31.8935	683.2915	-0.0592	0.0182	-0.0073	-0.0462	0.0165	0.9585
9.8551	-5.6321	19.8351	-2.3172	-10.6075	-0.63294	18.0702	5.3867	712.626	-36.6676	320.7083	31.9115	684.19	-0.0592	0.0182	-0.0073	-0.0462	0.0165	0.9585
9.8673	-5.7319	15.8594	-2.3577	-8.9148	-0.70676	13.9147	6.7341	715.0017	-37.3131	321.7579	31.868	682.879	-0.0592	0.0182	-0.0073	-0.0462	0.0165	0.9585
9.8795	-5.7391	11.0218	-2.3897	-6.8949	-0.7564	8.9073	8.1642	714.8601	-37.8491	321.675	31.695	679.182	-0.0592	0.0182	-0.0073	-0.0462	0.0165	0.9585
9.8917	-5.5423	5.3711	-2.3989	-4.5662	-0.74624	3.0973	9.6586	712.2418	-38.2541	320.4691	31.3786	673.178	-0.0592	0.0182	-0.0073	-0.0462	0.0165	0.9585
9.9039	-5.0308	-0.85935	-2.3898	-2.0061	-0.61599	-3.2369	11.1926	707.5008	-38.5213	318.285	30.92	665.2379	-0.0592	0.0182	-0.0073	-0.0462	0.0165	0.9585
9.9161	-4.0748	-7.1534	-2.3843	0.60669	-0.27401	-9.5005	12.7748	701.3401	-38.691	315.4155	30.346	656.0527	-0.0592	0.0182	-0.0073	-0.0462	0.0165	0.9585
9.9284	-2.5748	-12.5488	-2.4319	2.9394	0.39385	-14.6032	14.4314	694.7123	-38.8001	312.2623	29.6642	646.532	-0.0592	0.0182	-0.0073	-0.0462	0.0165	0.9585
9.9406	-0.44051	-15.5459	-2.6165	4.469	1.529	-16.8852	16.2004	688.6274	-38.9145	309.2519	28.9091	637.6232	-0.0592	0.0182	-0.0073	-0.0462	0.0165	0.9585
9.9528	2.3491	-14.036	-3.0513	4.4609	3.2745	-13.9977	18.1263	683.909	-39.0678	306.7335	28.0879	630.0863	-0.0592	0.0182	-0.0073	-0.0462	0.0165	0.9585
9.965	5.7131	-5.3655	-3.8768	1.9916	5.7499	-2.9897	20.2549	680.9345	-39.2692	304.8695	27.1881	624.2592	-0.0592	0.0182	-0.0073	-0.0462	0.0165	0.9585
9.9772	9.3434	13.4261	-5.2188	-3.9652	8.9629	19.4384	22.6122	679.4749	-39.4648	303.5634	26.149	619.9419	-0.0592	0.0182	-0.0073	-0.0462	0.0165	0.9585
9.9894	12.6551	45.0818	-7.1487	-14.3565	12.742	56.3352	25.1971	678.6055	-39.549	302.4244	24.8845	616.3292	-0.0592	0.0182	-0.0073	-0.0462	0.0165	0.9585
10.0016	14.7201	91.2362	-9.5688	-29.7335	16.5945	109.5367	27.9233	676.7785	-39.3325	300.7973	23.2695	612.0748	-0.0592	0.0182	-0.0073	-0.0462	0.0165	0.9585
10.0139	14.2777	151.0143	-12.1247	-49.7695	19.6195	178.0937	30.6196	671.899	-38.611	297.7965	21.2064	605.3379	-0.0592	0.0182	-0.0073	-0.0462	0.0165	0.9585
10.0261	9.8154	219.2384	-13.9806	-72.637	20.3249	256.2666	32.9975	661.5748	-37.2215	292.4136	18.6795	594.0183	-0.0592	0.0182	-0.0073	-0.0462	0.0165	0.9585
10.0383	0.81602	285.6562	-13.6747	-94.7479	16.9231	332.6272	34.7709	643.5289	-35.1134	283.7013	15.7773	576.1091	-0.0592	0.0182	-0.0073	-0.0462	0.0165	0.9585
10.0505	-10.2371	339.8631	-9.5983	-112.4842	8.5811	395.323	35.7615	616.2258	-32.3584	271.0345	12.6623	550.2432	-0.0592	0.0182	-0.0073	-0.0462	0.0165	0.9585
